<svg xmlns="http://www.w3.org/2000/svg" width="24.75" height="24.75" viewBox="0 0 24.75 24.75"><g id="WP-icon-link-style" transform="translate(15529 -3693)"><path d="M20.067,2.946a4.96,4.96,0,0,1,0,7l-1.756,1.745a4.906,4.906,0,0,1-4.752,1.251l3.007-3,.872-.884.872-.872a2.467,2.467,0,1,0-3.49-3.49l-.884.872-3.88,3.88A4.939,4.939,0,0,1,11.321,4.7l1.745-1.756a4.96,4.96,0,0,1,7,0ZM9.564,15.194l6.13-6.13a1.233,1.233,0,0,0,0-1.745,1.268,1.268,0,0,0-1.756,0L7.82,13.449a1.233,1.233,0,0,0,0,1.745A1.254,1.254,0,0,0,9.564,15.194Zm-.872,2.629,4.752-4.764a4.906,4.906,0,0,1-1.251,4.752l-1.745,1.756a4.951,4.951,0,1,1-7-7L5.2,10.821A4.939,4.939,0,0,1,9.955,9.558L5.2,14.322a2.472,2.472,0,1,0,3.49,3.5Z" fill="#50575e" transform="translate(-15531 3691.5)"/><g transform="translate(-15512.459 3705.6)"><path d="M9,1V5.56a1.521,1.521,0,0,0,.768,1.313l.793.421a1.955,1.955,0,0,1,1.016,1.958l-.173,1.66A1.37,1.37,0,0,0,12.569,12.4h.149a1.333,1.333,0,0,0,1.338-1.338v-.149l-.173-1.66A1.974,1.974,0,0,1,14.9,7.295l.793-.421a1.452,1.452,0,0,0,.768-1.289V1Z" transform="translate(-9 -1)" fill="none" stroke="#50575e" stroke-miterlimit="10" stroke-width="1.5"/><line x2="7" transform="translate(0.438 3.007)" fill="none" stroke="#50575e" stroke-miterlimit="10" stroke-width="1.5"/></g></g></svg>
