<svg width="172" height="132" viewBox="0 0 172 132" fill="none" xmlns="http://www.w3.org/2000/svg">
<path d="M0 132V94.2328C0 83.3717 2.03004 72.0785 6.09013 60.3534C10.2732 48.5049 15.9328 37.3352 23.0687 26.8443C30.3276 16.23 38.4478 7.28192 47.4292 0L78.4335 20.1795C71.1745 31.1641 65.0844 42.6424 60.1631 54.6143C55.3648 66.4628 53.0272 79.5456 53.1502 93.8625V132H0ZM93.5665 132V94.2328C93.5665 83.3717 95.5966 72.0785 99.6566 60.3534C103.84 48.5049 109.499 37.3352 116.635 26.8443C123.894 16.23 132.014 7.28192 140.996 0L172 20.1795C164.741 31.1641 158.651 42.6424 153.73 54.6143C148.931 66.4628 146.594 79.5456 146.717 93.8625V132H93.5665Z" fill="#1EE491"/>
</svg>