<svg fill="none" height="139" viewBox="0 0 440 139" width="440" xmlns="http://www.w3.org/2000/svg" xmlns:xlink="http://www.w3.org/1999/xlink">
            <linearGradient id="site-logo-a">
                <stop offset="0" stop-color="#33cca6"/><stop offset="1" stop-color="#1892df"/>
            </linearGradient>
            <linearGradient id="site-logo-b" gradientUnits="userSpaceOnUse" x1="127.9" x2="405.6" href="#site-logo-a" y1="97.6" y2="97.6"/>
            <linearGradient id="site-logo-c" gradientUnits="userSpaceOnUse" x1="127.9" x2="405.6" href="#site-logo-a" y1="97.6001" y2="97.6001"/>
            <linearGradient id="site-logo-d" gradientUnits="userSpaceOnUse" x1="436.4" x2="3.09995" y1="148.6" y2="-9.19993">
                <stop offset="0" stop-color="#1892df"/>
                <stop offset="1" stop-color="#33cca6"/>
            </linearGradient>
            <clipPath id="site-logo-e">
                <path d="m0 0h440v139h-440z"/>
            </clipPath>
            <g clip-path="url(#site-logo-e)">
                <path class="logo-updatable-path" d="m170.6 72.4999c-3.1 0-5.8-.6-8-1.9s-4-3.1-5.2-5.5-1.8-5.1999-1.8-8.3999.6-6.0001 1.8-8.4001 2.9-4.2999 5.1-5.5999 4.8-2 7.7-2 3.7.2999 5.4.8999 3.2 1.6 4.5 2.8c1.3 1.3 2.3 2.9 3.1 4.9s1.1 4.3 1.1 7v2.2h-25.3v-4.9h18.3c0-1.4-.3-2.6-.9-3.7s-1.4-2-2.5-2.6-2.3-.9-3.7-.9-2.8.4-3.9 1.1-2 1.7-2.6 2.8c-.6 1.2-.9 2.4-1 3.8v4.3c0 1.8.3 3.3 1 4.6s1.6 2.3 2.8 2.9c1.2.7 2.6 1 4.1 1s2-.2 2.9-.5 1.6-.7 2.2-1.3 1.1-1.3 1.4-2.2l6.8.8001c-.4 1.8-1.2 3.3999-2.4 4.6999s-2.7 2.4-4.6 3.1-4 1.1-6.4 1.1z" fill="#00255b"/>
                <path class="logo-updatable-path" d="m212.2 49.1001-6.6.7c-.2-.7-.5-1.3-1-1.9s-1.1-1.1-1.9-1.4c-.8-.4-1.7-.5-2.9-.5s-2.8.3-3.8 1-1.5 1.5-1.5 2.6c0 .9.3 1.6 1 2.2s1.8 1 3.4 1.4l5.3 1.1c2.9.6 5.1 1.6 6.5 3s2.1 3.2 2.2 5.4c0 1.9-.6 3.7-1.7 5.1-1.1 1.5-2.7 2.6-4.7 3.5-2 .8-4.3 1.2-6.8 1.2-3.8 0-6.8-.8-9.1-2.4s-3.7-3.8-4.1-6.6l7.1-.7c.3 1.4 1 2.4 2.1 3.2 1 .7 2.4 1.1 4.1 1.1s3.1-.4 4.2-1.1 1.6-1.6 1.6-2.6-.3-1.6-1-2.2-1.7-1-3.1-1.3l-5.3-1.1c-3-.6-5.2-1.7-6.6-3.1-1.4-1.5-2.1-3.3-2.1-5.6 0-1.9.5-3.6 1.6-5s2.5-2.5 4.4-3.3 4.1-1.2 6.5-1.2c3.6 0 6.5.8 8.6 2.3s3.4 3.6 3.9 6.3z" fill="#00255b"/>
                <path class="logo-updatable-path" d="m240.7 49.1001-6.6.7c-.2-.7-.5-1.3-1-1.9s-1.1-1.1-1.9-1.4c-.8-.4-1.7-.5-2.9-.5s-2.8.3-3.8 1-1.5 1.5-1.5 2.6c0 .9.3 1.6 1 2.2s1.8 1 3.4 1.4l5.3 1.1c2.9.6 5.1 1.6 6.5 3s2.1 3.2 2.2 5.4c0 1.9-.6 3.7-1.7 5.1-1.1 1.5-2.7 2.6-4.7 3.5-2 .8-4.3 1.2-6.8 1.2-3.8 0-6.8-.8-9.1-2.4s-3.7-3.8-4.1-6.6l7.1-.7c.3 1.4 1 2.4 2.1 3.2 1 .7 2.4 1.1 4.1 1.1s3.1-.4 4.2-1.1 1.6-1.6 1.6-2.6-.3-1.6-1-2.2-1.7-1-3.1-1.3l-5.3-1.1c-3-.6-5.2-1.7-6.6-3.1-1.4-1.5-2.1-3.3-2.1-5.6 0-1.9.5-3.6 1.6-5s2.5-2.5 4.4-3.3 4.1-1.2 6.5-1.2c3.6 0 6.5.8 8.6 2.3s3.4 3.6 3.9 6.3z" fill="#00255b"/>
                <path class="logo-updatable-path" d="m291.7 44.5999h-7.5c-.2-1.2-.6-2.3-1.2-3.3s-1.3-1.8-2.2-2.4c-.9-.7-1.8-1.2-2.9-1.5s-2.3-.5-3.5-.5c-2.2 0-4.2.6-6 1.7-1.7 1.1-3.1 2.8-4.1 4.9-1 2.2-1.5 4.8-1.5 7.9s.5 5.8 1.5 8 2.3 3.8 4.1 4.9c1.7 1.1 3.7 1.6 5.9 1.6s2.4-.2 3.5-.5 2.1-.8 2.9-1.5c.9-.6 1.6-1.4 2.2-2.4.6-.9 1-2 1.2-3.2h7.5c-.3 2-.9 3.8-1.8 5.6-.9 1.7-2.1 3.2-3.7 4.5-1.5 1.3-3.3 2.3-5.3 3.1-2 .7-4.2 1.1-6.7 1.1-3.6 0-6.9-.8-9.7-2.5s-5.1-4.1-6.7-7.3-2.5-7-2.5-11.4.8-8.2 2.5-11.4c1.6-3.2 3.9-5.5999 6.7-7.2999s6.1-2.5 9.7-2.5 4.4.3 6.4 1 3.7 1.5999 5.3 2.7999c1.5 1.2 2.8 2.8 3.8 4.5 1 1.8 1.7 3.8 2 6.1z" fill="#00255b"/>
                <path class="logo-updatable-path" d="m295.5 71.9v-30.9h7.1v5.1h.3c.6-1.8 1.5-3.2 2.9-4.1 1.4-1 2.9-1.5 4.7-1.5h1.4c.5 0 .9 0 1.3.2v6.7c-.3-.1-.8-.2-1.5-.3-.7 0-1.3-.1-1.9-.1-1.3 0-2.5.3-3.6.9s-1.9 1.4-2.5 2.4-.9 2.2-.9 3.5v18.2h-7.3z" fill="#00255b"/>
                <path d="m127.9 108v-20.7h8.6c1.5 0 2.9.3 4 .8s2 1.4001 2.6 2.4001.9 2.3.9 3.7-.3 2.7-.9 3.7-1.5 1.8-2.7 2.2999c-1.2.5-2.5.8-4.1.8h-5.4v-3.9h4.5c.8 0 1.4 0 1.9-.3.5-.2.9-.4999 1.2-.8999s.4-.9001.4-1.6001-.1-1.1999-.4-1.5999-.7-.7-1.2-1-1.1-.3-1.9-.3h-2.5v16.6999h-5zm11.7-9.4999 5.2 9.4999h-5.5l-5.1-9.4999z" fill="url(#site-logo-b)"/>
                <path d="m156.1 108v-20.7h14.4v4.1001h-9.4v4.1999h8.7v4.1001h-8.7v4.2999h9.4v4.1h-14.4z" fill="url(#site-logo-b)"/>
                <path d="m200.6 87.3v20.7h-4.2l-8.2-11.9h-.1v11.9h-5v-20.7h4.3l8.1 11.9001h.2v-11.9001h5z" fill="url(#site-logo-c)"/>
                <path d="m213.1 108v-20.7h14.4v4.1001h-9.4v4.1999h8.7v4.1001h-8.7v4.2999h9.4v4.1h-14.4z" fill="url(#site-logo-b)"/>
                <path d="m245 108-6-20.7h5.5l3.1 13.6h.2l3.6-13.6h4.5l3.6 13.6h.2l3.1-13.6h5.5l-6 20.7h-4.8l-3.7-12.5999h-.2l-3.7 12.5999h-4.8z" fill="url(#site-logo-c)"/>
                <path d="m281.8 108h-5.4l7-20.7h6.7l7 20.7h-5.4l-4.9-15.4999h-.2l-4.9 15.4999zm-.7-8.0999h11.2v3.7999h-11.2z" fill="url(#site-logo-c)"/>
                <path d="m308.7 108v-20.7h8.6c1.5 0 2.8.2001 3.9.7001 1 .4 1.8 1.0999 2.4 1.7999.5.8.8 1.7001.8 2.7001s-.2 1.4999-.5 2.0999-.8 1.1-1.4 1.5-1.2.7001-2 .8001v.1999c.8 0 1.6.3 2.3.7s1.3 1.0001 1.7 1.7001c.4.6999.6 1.5999.6 2.5999s-.3 2.1-.8 3c-.6.9-1.4 1.6-2.5 2.1s-2.4.8-3.9.8h-9.3zm5-12.2h2.8c.5 0 1 .0001 1.5-.2999s.8-.4 1-.8c.2-.3.4-.8.4-1.2 0-.7-.2-1.2-.7-1.6s-1.2-.6001-2-.6001h-2.9v4.5zm0 8.2h3.1c1.1 0 1.9-.2 2.4-.6s.8-1 .8-1.7-.1-1-.4-1.4c-.2-.4-.6-.6999-1.1-.8999s-1-.3001-1.6-.3001h-3.2z" fill="url(#site-logo-c)"/>
                <path d="m336.9 108v-20.7h5v16.6h8.6v4.1z" fill="url(#site-logo-c)"/>
                <path d="m362.5 108v-20.7h14.4v4.1001h-9.4v4.1999h8.7v4.1001h-8.7v4.2999h9.4v4.1h-14.4z" fill="url(#site-logo-b)"/>
                <path d="m400.5 93.5c0-.7-.4-1.3-.9-1.7s-1.3-.6-2.3-.6-1.2 0-1.6.3-.8.4-1 .7-.3.6-.3 1c0 .3 0 .6.2.8.1.2.3.4.6.6s.6.3 1 .5c.4.1.8.3 1.3.4l1.8.4c1 .2 1.9.5 2.7.9s1.4.8 2 1.3c.5.5.9 1.1 1.2 1.8s.4 1.4.4 2.2c0 1.3-.3 2.4-1 3.4s-1.6 1.7-2.8 2.2-2.7.7-4.4.7-3.2-.3-4.5-.8-2.3-1.3-3-2.4-1.1-2.4-1.1-4h4.8c0 .7.2 1.2.5 1.7.3.4.8.8 1.3 1 .6.2 1.2.3 1.9.3s1.2 0 1.7-.3.8-.4 1.1-.8.4-.7.4-1.1-.1-.7-.4-1-.6-.5-1.1-.7-1.1-.4-1.9-.6l-2.2-.5c-1.8-.4-3.2-1.1-4.2-2s-1.5-2.2-1.5-3.7c0-1.3.3-2.4 1-3.4s1.7-1.7 2.9-2.3c1.2-.5 2.6-.8 4.2-.8s3 .3 4.2.8 2.1 1.3 2.8 2.3 1 2.1 1 3.4z" fill="url(#site-logo-b)"/>
                <g fill="#00255b">
                    <path class="logo-updatable-path" d="m70 44.5999h-7.5c-.2-1.2-.6-2.3-1.2-3.3s-1.3-1.8-2.2-2.4c-.9-.7-1.8-1.2-2.9-1.5s-2.3-.5-3.5-.5c-2.2 0-4.2.6-6 1.7-1.7 1.1-3.1 2.8-4.1 4.9-1 2.2-1.5 4.8-1.5 7.9s.5 5.8 1.5 8 2.3 3.8 4.1 4.9c1.7 1.1 3.7 1.6 5.9 1.6s2.4-.2 3.5-.5 2.1-.8 2.9-1.5c.9-.6 1.6-1.4 2.2-2.4.6-.9 1-2 1.2-3.2h7.5c-.3 2-.9 3.8-1.8 5.6-.9 1.7-2.1 3.2-3.7 4.5-1.5 1.3-3.3 2.3-5.3 3.1s-4.2 1.1-6.7 1.1c-3.6 0-6.9-.8-9.7-2.5s-5.1-4.1-6.7-7.3-2.5-7-2.5-11.4.8-8.2 2.5-11.4c1.6-3.2 3.9-5.5999 6.7-7.2999s6.1-2.5 9.7-2.5 4.4.3 6.4 1c2 .6 3.7 1.5999 5.3 2.7999 1.5 1.2 2.8 2.8 3.8 4.5 1 1.8 1.7 3.8 2 6.1z"/>
                    <path class="logo-updatable-path" d="m78.7 83.5c-1 0-1.9001 0-2.7001-.2s-1.5-.3-2-.5l1.7001-5.7c1.1.3 1.9999.5 2.7999.4.8 0 1.6001-.3 2.2001-.8s1.1999-1.3 1.5999-2.5l.6-1.7-11.1999-31.5h7.6999l7.1 23.3h.3l7.1-23.3h7.7001l-12.4 34.6c-.6 1.6-1.3001 3-2.3001 4.2s-2.1 2.1-3.5 2.7-3 .9-4.9.9z"/>
                    <path class="logo-updatable-path" d="m104.1 83.5001v-42.5h7.2v5.1h.4c.4-.8.9-1.6 1.6-2.4.7-.9 1.6-1.6 2.8-2.2s2.7-.9 4.5-.9 4.5.6 6.5 1.8c1.9 1.2 3.5 3 4.6 5.4s1.7 5.3 1.7 8.7-.6 6.3-1.7 8.7-2.6 4.2-4.5 5.4-4.1 1.9-6.5 1.9-3.2-.3-4.4-.9-2.1-1.3-2.8-2.1-1.3-1.6-1.6-2.4h-.3v16.5h-7.3zm7.2-27.1c0 2 .3 3.7.9 5.3.6 1.5 1.4 2.7 2.5 3.5s2.4 1.3 3.9 1.3 3-.4 4-1.3c1.1-.9 1.9-2.1 2.5-3.6s.8-3.2.8-5.2-.3-3.6-.8-5.1c-.6-1.5-1.4-2.7-2.5-3.5s-2.4-1.3-4.1-1.3-2.9.4-4 1.2-1.9 2-2.5 3.4-.8 3.2-.8 5.2z"/>
                    <path class="logo-updatable-path" d="m136.9 71.9v-30.9h7.1v5.1h.3c.6-1.8 1.5-3.2 2.9-4.1 1.4-1 2.9-1.5 4.7-1.5h1.4c.5 0 .9 0 1.3.2v6.7c-.3-.1-.8-.2-1.5-.3-.7 0-1.3-.1-1.9-.1-1.3 0-2.5.3-3.6.9s-1.9 1.4-2.5 2.4-.9 2.2-.9 3.5v18.2h-7.3z"/>
                    <path class="logo-updatable-path" d="m329.4 72.4999c-3.1 0-5.8-.6-8-1.9s-4-3.1-5.2-5.5-1.8-5.1999-1.8-8.3999.6-6.0001 1.8-8.4001 2.9-4.2999 5.1-5.5999 4.8-2 7.7-2 3.7.2999 5.4.8999 3.2 1.6 4.5 2.8c1.3 1.3 2.3 2.9 3.1 4.9s1.1 4.3 1.1 7v2.2h-25.3v-4.9h18.3c0-1.4-.3-2.6-.9-3.7s-1.4-2-2.5-2.6-2.3-.9-3.7-.9-2.8.4-3.9 1.1-2 1.7-2.6 2.8c-.6 1.2-.9 2.4-1 3.8v4.3c0 1.8.3 3.3 1 4.6s1.6 2.3 2.8 2.9c1.2.7 2.6 1 4.1 1s2-.2 2.9-.5 1.6-.7 2.2-1.3 1.1-1.3 1.4-2.2l6.8.8001c-.4 1.8-1.2 3.3999-2.4 4.6999s-2.7 2.4-4.6 3.1-4 1.1-6.4 1.1z"/>
                    <path class="logo-updatable-path" d="m360.3 72.4999c-3.1 0-5.8-.6-8-1.9s-4-3.1-5.2-5.5-1.8-5.1999-1.8-8.3999.6-6.0001 1.8-8.4001 2.9-4.2999 5.1-5.5999 4.8-2 7.7-2 3.7.2999 5.4.8999 3.2 1.6 4.5 2.8c1.3 1.3 2.3 2.9 3.1 4.9s1.1 4.3 1.1 7v2.2h-25.3v-4.9h18.3c0-1.4-.3-2.6-.9-3.7s-1.4-2-2.5-2.6-2.3-.9-3.7-.9-2.8.4-3.9 1.1-2 1.7-2.6 2.8c-.6 1.2-.9 2.4-1 3.8v4.3c0 1.8.3 3.3 1 4.6s1.6 2.3 2.8 2.9c1.2.7 2.6 1 4.1 1s2-.2 2.9-.5 1.6-.7 2.2-1.3 1.1-1.3 1.4-2.2l6.8.8001c-.4 1.8-1.2 3.3999-2.4 4.6999s-2.7 2.4-4.6 3.1-4 1.1-6.4 1.1z"/>
                    <path class="logo-updatable-path" d="m377.6 71.8999v-41.1999h7.3v41.1999zm6.6-9.6999v-8.8001h1.1l11.1-12.4h8.5l-13.7 15.2001h-1.5l-5.6 6zm12.7 9.6999-10.1-14.1 4.9-5.0999 13.9 19.1999z"/>
                </g>
                <path d="m439.8 139.4h-440.100049v-139.4h440.100049zm-430.30006-10h420.50006v-119.4h-420.50006z" fill="url(#site-logo-d)"/>
            </g>
        </svg>